<svg width="18" height="18" viewBox="0 0 18 18" fill="none" xmlns="http://www.w3.org/2000/svg">
<path d="M8.64684 17.2937C13.4224 17.2937 17.2937 13.4224 17.2937 8.64684C17.2937 3.87132 13.4224 0 8.64684 0C3.87132 0 0 3.87132 0 8.64684C0 13.4224 3.87132 17.2937 8.64684 17.2937Z" fill="#3688D1"/>
<path d="M14.9887 9.67269C15.5568 6.1685 13.1766 2.86729 9.67234 2.29923C6.16811 1.73117 2.86687 4.11137 2.29882 7.61556C1.73076 11.1197 4.111 14.421 7.61523 14.989C11.1195 15.5571 14.4207 13.1769 14.9887 9.67269Z" fill="#B8DCFF"/>
<path d="M6.85767 11.186V6.10764C6.85767 5.59328 7.44287 5.29784 7.85682 5.60318L11.2982 8.14234C11.6378 8.39292 11.6378 8.90068 11.2982 9.15126L7.85682 11.6904C7.44287 11.9959 6.85767 11.7004 6.85767 11.186Z" fill="#3688D1"/>
</svg>
