<svg width="37" height="18" viewBox="0 0 37 18" fill="none" xmlns="http://www.w3.org/2000/svg">
<path d="M29.9494 15.448H11.728V1.84583H29.9494C33.7056 1.84583 36.7505 4.89073 36.7505 8.64689C36.7505 12.403 33.7056 15.448 29.9494 15.448Z" fill="#3688D1"/>
<path d="M21.7923 10.5451C21.7912 10.5451 21.7902 10.5451 21.7891 10.5451C21.3859 10.5473 20.9528 10.549 20.6261 10.5492V6.18981C20.6261 5.88346 20.3778 5.63525 20.0715 5.63525C19.7652 5.63525 19.517 5.88353 19.517 6.18981V11.0997C19.517 11.3698 19.7116 11.6006 19.9779 11.6463C20.0178 11.6531 21.234 11.6574 21.7954 11.6543C22.1017 11.6526 22.3486 11.4029 22.3469 11.0966C22.345 10.7913 22.0971 10.5451 21.7923 10.5451Z" fill="#B8DCFF"/>
<path d="M23.7112 5.63513C23.4048 5.63513 23.1566 5.88341 23.1566 6.18969V11.1037C23.1566 11.4101 23.4049 11.6583 23.7112 11.6583C24.0175 11.6583 24.2657 11.41 24.2657 11.1037V6.18976C24.2657 5.88341 24.0175 5.63513 23.7112 5.63513Z" fill="#B8DCFF"/>
<path d="M33.0948 10.5269H31.5977V9.20141H32.9435C33.2498 9.20141 33.498 8.95313 33.498 8.64685C33.498 8.34057 33.2498 8.09229 32.9435 8.09229H31.5977V6.76683H33.0948C33.4011 6.76683 33.6494 6.51855 33.6494 6.21227C33.6494 5.90592 33.4011 5.65771 33.0948 5.65771H31.0431C30.7367 5.65771 30.4885 5.906 30.4885 6.21227V11.0815C30.4885 11.3878 30.7368 11.6361 31.0431 11.6361H33.0948C33.4011 11.6361 33.6494 11.3878 33.6494 11.0815C33.6494 10.7752 33.4011 10.5269 33.0948 10.5269Z" fill="#B8DCFF"/>
<path d="M29.2991 5.67264C29.0086 5.57602 28.6945 5.73329 28.5979 6.02406L27.4055 9.61348L26.1539 6.00806C26.0536 5.71865 25.7374 5.56518 25.4482 5.66596C25.1589 5.76631 25.0057 6.08235 25.1061 6.37169L26.7876 11.216C26.8819 11.4812 27.1335 11.6585 27.4146 11.6585C27.4162 11.6585 27.4177 11.6585 27.4192 11.6584C27.7022 11.6565 27.9536 11.4752 28.0459 11.2035L29.6503 6.37369C29.7472 6.08314 29.5897 5.76918 29.2991 5.67264Z" fill="#B8DCFF"/>
<path d="M8.64684 17.2937C13.4224 17.2937 17.2937 13.4224 17.2937 8.64684C17.2937 3.87132 13.4224 0 8.64684 0C3.87132 0 0 3.87132 0 8.64684C0 13.4224 3.87132 17.2937 8.64684 17.2937Z" fill="#3688D1"/>
<path d="M14.9887 9.67269C15.5568 6.1685 13.1766 2.86729 9.67234 2.29923C6.16811 1.73117 2.86687 4.11137 2.29882 7.61556C1.73076 11.1197 4.111 14.421 7.61523 14.989C11.1195 15.5571 14.4207 13.1769 14.9887 9.67269Z" fill="#B8DCFF"/>
<path d="M6.85767 11.186V6.10764C6.85767 5.59328 7.44287 5.29784 7.85682 5.60318L11.2982 8.14234C11.6378 8.39292 11.6378 8.90068 11.2982 9.15126L7.85682 11.6904C7.44287 11.9959 6.85767 11.7004 6.85767 11.186Z" fill="#3688D1"/>
</svg>
