<svg width="25" height="24" viewBox="0 0 25 24" fill="none" xmlns="http://www.w3.org/2000/svg">
<g clip-path="url(#clip0_61_918)">
<path fill-rule="evenodd" clip-rule="evenodd" d="M6.5 0C4.9087 0 3.38258 0.632141 2.25736 1.75736C1.13214 2.88258 0.5 4.4087 0.5 6L0.5 18C0.5 19.5913 1.13214 21.1174 2.25736 22.2426C3.38258 23.3679 4.9087 24 6.5 24H18.5C20.0913 24 21.6174 23.3679 22.7426 22.2426C23.8679 21.1174 24.5 19.5913 24.5 18V6C24.5 4.4087 23.8679 2.88258 22.7426 1.75736C21.6174 0.632141 20.0913 0 18.5 0L6.5 0ZM17.375 12C17.0766 12 16.7905 11.8815 16.5795 11.6705C16.3685 11.4595 16.25 11.1734 16.25 10.875V9.84L11 15.09V18.375C11 18.6734 10.8815 18.9595 10.6705 19.1705C10.4595 19.3815 10.1734 19.5 9.875 19.5C9.57663 19.5 9.29048 19.3815 9.0795 19.1705C8.86853 18.9595 8.75 18.6734 8.75 18.375V15.8385C8.71886 15.8107 8.68932 15.7811 8.6615 15.75H6.125C5.82663 15.75 5.54048 15.6315 5.3295 15.4205C5.11853 15.2095 5 14.9234 5 14.625C5 14.3266 5.11853 14.0405 5.3295 13.8295C5.54048 13.6185 5.82663 13.5 6.125 13.5H9.41L14.66 8.25H13.625C13.3266 8.25 13.0405 8.13147 12.8295 7.9205C12.6185 7.70952 12.5 7.42337 12.5 7.125C12.5 6.82663 12.6185 6.54048 12.8295 6.3295C13.0405 6.11853 13.3266 6 13.625 6H18.5V10.875C18.5 11.1734 18.3815 11.4595 18.1705 11.6705C17.9595 11.8815 17.6734 12 17.375 12Z" fill="#B8DCFF"/>
</g>
<defs>
<clipPath id="clip0_61_918">
<rect width="24" height="24" fill="white" transform="translate(0.5)"/>
</clipPath>
</defs>
</svg>
