<svg width="24" height="24" viewBox="0 0 24 24" fill="none" xmlns="http://www.w3.org/2000/svg">
<path d="M23.4657 9.91872L20.7188 9.22966C20.55 8.70935 20.3391 8.20314 20.086 7.72497C20.4937 7.0359 21.3656 5.58751 21.3656 5.58751C21.5204 5.30626 21.4782 4.9547 21.2532 4.72965L19.2703 2.73282C19.0454 2.50786 18.6797 2.46563 18.4125 2.63438L16.275 3.91407C15.7828 3.66094 15.2766 3.44996 14.7703 3.28126L14.0812 0.534423C14.011 0.224954 13.7297 0 13.4063 0H10.5938C10.2704 0 9.98908 0.224954 9.91882 0.534376C9.91882 0.534376 9.44064 2.45152 9.22975 3.28121C8.68131 3.46402 8.14689 3.68898 7.64069 3.97027L5.41876 2.63433C5.13751 2.46558 4.78595 2.50782 4.56095 2.73277L2.57813 4.72965C2.33911 4.9547 2.29688 5.30626 2.46558 5.58751L3.84376 7.8797C3.61871 8.31564 3.4359 8.76564 3.28126 9.22966L0.534423 9.91872C0.224954 9.98908 0 10.2703 0 10.5938V13.4063C0 13.7297 0.224954 14.011 0.534376 14.0812L3.28126 14.7703C3.45001 15.2906 3.67505 15.8109 3.92818 16.3032L2.70474 18.3422C2.53599 18.6234 2.57813 18.975 2.81719 19.2141L4.80006 21.1969C5.02501 21.4219 5.37657 21.4641 5.65787 21.2953C5.65787 21.2953 7.03595 20.4796 7.71105 20.0719C8.20314 20.3391 8.70935 20.55 9.22975 20.7188L9.91882 23.4656C9.98913 23.775 10.2704 24 10.5938 24H13.4063C13.7297 24 14.011 23.775 14.0812 23.4656L14.7703 20.7188C15.3047 20.5499 15.825 20.325 16.3313 20.0578C17.0203 20.4656 18.4125 21.2953 18.4125 21.2953C18.6797 21.4641 19.0453 21.4219 19.2703 21.1969L21.2532 19.2141C21.4781 18.975 21.5204 18.6234 21.3656 18.3422L20.1 16.2469C20.3532 15.7688 20.55 15.2765 20.7188 14.7703L23.4656 14.0812C23.775 14.0109 24 13.7297 24 13.4063V10.5938C24 10.2703 23.7751 9.98908 23.4657 9.91872ZM12 16.9219C9.28596 16.9219 7.07814 14.7141 7.07814 12C7.07814 9.28596 9.28596 7.07814 12 7.07814C14.7141 7.07814 16.9219 9.28596 16.9219 12C16.9219 14.7141 14.7141 16.9219 12 16.9219Z" fill="#B8DCFF"/>
</svg>
