<svg width="25" height="16" viewBox="0 0 25 16" fill="none" xmlns="http://www.w3.org/2000/svg">
<path d="M24.2305 4.97739V0H6.60299V1.04348C6.60299 1.18748 6.48612 1.30435 6.34212 1.30435C6.19812 1.30435 6.08125 1.18748 6.08125 1.04348V0H0.230469V4.97739C1.80612 4.97739 3.07916 6.25043 3.07916 7.82609C3.07916 9.40174 1.80612 10.6748 0.230469 10.6748V15.6522H6.08125V14.6087C6.08125 14.4647 6.19812 14.3478 6.34212 14.3478C6.48612 14.3478 6.60299 14.4647 6.60299 14.6087V15.6522H24.2305V10.6748C22.6548 10.6748 21.3818 9.40174 21.3818 7.82609C21.3818 6.25043 22.6548 4.97739 24.2305 4.97739ZM6.60299 12.671C6.60299 12.815 6.48612 12.9318 6.34212 12.9318C6.19812 12.9318 6.08125 12.815 6.08125 12.671V10.7332C6.08125 10.5892 6.19812 10.4723 6.34212 10.4723C6.48612 10.4723 6.60299 10.5892 6.60299 10.7332V12.671ZM6.60299 8.79496C6.60299 8.93896 6.48612 9.05583 6.34212 9.05583C6.19812 9.05583 6.08125 8.93896 6.08125 8.79496V6.85722C6.08125 6.71322 6.19812 6.59635 6.34212 6.59635C6.48612 6.59635 6.60299 6.71322 6.60299 6.85722V8.79496ZM6.60299 4.91948C6.60299 5.06348 6.48612 5.18035 6.34212 5.18035C6.19812 5.18035 6.08125 5.06348 6.08125 4.91948V2.98174C6.08125 2.83774 6.19812 2.72087 6.34212 2.72087C6.48612 2.72087 6.60299 2.83774 6.60299 2.98174V4.91948Z" fill="white"/>
</svg>
